<svg
    xmlns="http://www.w3.org/2000/svg"
    xmlns:xlink="http://www.w3.org/1999/xlink" width="1024" height="1024" viewBox="0 0 1024 1024" fill="none">
    <g  clip-path="url(#clip-path-KE17naRhiY5UDr0r7EdVe)">
        <g opacity="0">
            <path d="M0 0L0 1024L1024 1024L1024 0L0 0Z"   fill="#FFFFFF" ></path>
        </g>
        <g opacity="0.05">
            <path d="M950.351 664.615C986.863 669.08 933.282 745.526 848.951 778.902C792.88 804.056 430.191 876.18 212.995 802.041C108.115 757.125 84.4698 614.862 76.7968 581.767C69.1238 548.672 19.1769 333.146 160.398 303.513C301.619 273.879 385.048 308.393 447.098 248.052C509.149 187.71 524.624 197.614 575.59 201.605C626.557 205.596 685.626 162.039 705.475 148.955C725.324 135.872 904.534 51.6934 950.351 303.513C957.592 412.384 963.61 530.497 912.913 575.237C862.216 619.978 913.839 660.151 950.351 664.615Z"   fill="#47B0F1" ></path>
        </g>
        <g opacity="0.100000001">
            <path d="M100 306.5C100 302.358 103.358 299 107.5 299L186.5 299C190.642 299 194 302.358 194 306.5L194 307.5C194 311.642 190.642 315 186.5 315L155 315C151.215 315 148.131 318.005 148.004 321.759L148 322C148 325.785 151.005 328.869 154.759 328.996L155 329L158 329L158.001 329.15C161.424 329.845 164 332.872 164 336.5L164 337.5C164 341.642 160.642 345 156.5 345L77.5 345C73.3579 345 70 341.642 70 337.5L70 336.5C70 332.358 73.3579 329 77.5 329L109 329C112.785 329 115.869 325.995 115.996 322.241L116 322C116 318.215 112.995 315.131 109.241 315.004L109 315L106 315L106 314.85C102.577 314.155 100 311.129 100 307.5L100 306.5Z"   fill="url(#linear_fill_axprL56s2NDx001oldiz-)" ></path>
        </g>
        <g opacity="0.100000001">
            <path d="M800 136.5C800 132.358 803.358 129 807.5 129L886.5 129C890.642 129 894 132.358 894 136.5L894 137.5C894 141.642 890.642 145 886.5 145L855 145C851.215 145 848.131 148.005 848.004 151.759L848 152C848 155.785 851.005 158.869 854.759 158.996L855 159L858 159L858.001 159.15C861.424 159.845 864 162.872 864 166.5L864 167.5C864 171.642 860.642 175 856.5 175L777.5 175C773.358 175 770 171.642 770 167.5L770 166.5C770 162.358 773.358 159 777.5 159L809 159C812.785 159 815.869 155.995 815.996 152.241L816 152C816 148.215 812.995 145.131 809.241 145.004L809 145L806 145L806 144.85C802.577 144.155 800 141.129 800 137.5L800 136.5Z"   fill="url(#linear_fill_0Dhl8db8OhU0ATLeuZrUH)" ></path>
        </g>
        <path d="M347.587 879.894C180.198 867.129 62 835.721 62 799C62 750.951 264.367 712 514.517 712C645.621 712 763.778 722.788 846.303 740.013C927.064 740.66 992 765.031 992 795C992 819.23 949.553 839.8 890.611 847.132C877.644 850.885 863.205 854.433 847.453 857.746C847.815 859.812 848 861.898 848 864C848 915.915 735.176 958 596 958C471.347 958 367.833 924.24 347.587 879.894Z"   fill="url(#linear_fill_X5pcLaFgcFF0fi9jMdFq3)" ></path>
        <path d="M686.606 226.65L686.606 226.552C681.28 211.515 663.91 204.438 649.174 206.623C660.101 199.827 678.138 198.018 686.609 208.435L686.609 208.526C695.067 198.199 713.201 199.921 724.043 206.713C709.32 204.629 691.947 211.695 686.609 226.643L686.606 226.65Z"   fill="url(#linear_fill_yHXDwUsFQVtOZgjMypL2n)" ></path>
        <path d="M770.035 214.109L770.035 214.045C766.335 203.621 754.303 198.726 744.087 200.23C751.659 195.522 764.164 194.266 770.035 201.487L770.035 201.55C775.905 194.393 788.467 195.586 795.982 200.294C785.766 198.85 773.74 203.748 770.035 214.109Z"   fill="url(#linear_fill_O7B_CMEOJ1qeunzWL7fiV)" ></path>
        <path d="M735.242 179.631L735.242 179.567C731.543 169.143 719.51 164.248 709.295 165.752C716.867 161.044 729.372 159.788 735.242 167.009L735.242 167.072C741.113 159.915 753.674 161.108 761.19 165.816C750.974 164.372 738.948 169.27 735.242 179.631Z"   fill="url(#linear_fill__qQ-tmhr0Qx5HClYPcvCx)" ></path>
        <path d="M840.723 220.069L840.723 220.025C838.161 212.801 829.815 209.404 822.736 210.449C827.986 207.185 836.654 206.314 840.723 211.32L840.723 211.364C844.795 206.401 853.501 207.229 858.71 210.492C851.631 209.487 843.286 212.888 840.723 220.069Z"   fill="url(#linear_fill_2fYZnGutpqs1zLSR6pp7v)" ></path>
        <path d="M168.54 725.969C168.572 715.42 160.933 707.715 145.624 702.856C130.315 697.997 123.913 690.285 126.417 679.72C116.268 664.765 104.157 662.63 90.0839 673.314C76.0108 683.998 64.0409 685.026 54.1744 676.398C21.4922 661.707 6.81065 668.92 10.1298 698.037C12.0273 707.068 15.441 712.707 20.371 714.955C33.2127 730.601 40.0036 743.138 40.7437 752.567C41.854 766.711 52.8513 782.733 80.4051 773.576C98.7744 767.471 111.386 777.699 118.24 804.258C138.955 831.701 175.332 842.664 227.37 837.146C279.408 831.629 276.097 807.63 217.437 765.152C201.486 758.853 189.309 754.963 180.905 753.481C172.501 751.999 168.379 742.829 168.54 725.969Z"   fill="url(#linear_fill_aKz19_t4gw-1r07mh2UaF)" ></path>
        <path d="M92.0919 692.331C87.0222 680.456 102.684 712.12 102.89 725.048L143.134 751.91C143.095 751.857 143.057 751.805 143.022 751.753C144.132 734.464 143.685 722.396 141.68 715.548C144.37 719.144 147.237 744.925 145.644 753.587L182.66 778.293C182.452 778.046 182.32 777.881 182.32 777.881C182.32 777.881 184.226 763.603 182.541 756.409C184.214 758.436 185.328 773.358 184.843 779.75L215.39 800.14L211.52 804.01L179.982 781.678C171.46 786.712 159.772 787.472 154.122 786.945C164.568 785.988 172.2 783.591 177.019 779.752C177.869 780.43 178.702 780.962 179.516 781.349L90.6985 718.455C90.8963 718.676 91.0825 718.905 91.257 719.141C78.0955 720.997 66.2825 720.202 55.8182 716.757C56.6577 715.092 70.5691 721.593 88.932 717.206L52.6387 691.507L100.91 723.726C98.4544 710.814 95.515 700.349 92.0919 692.331Z"   fill="url(#linear_fill_J1EAkbbx39fwVv6h1b9gq)" ></path>
        <path d="M93.9717 768.363C104.511 768.667 118.235 762.576 135.141 750.093C135.73 750.78 136.469 751.52 137.36 752.311C121.389 764.927 104.24 769.895 93.9717 768.363Z"   fill="url(#linear_fill_0AEC1FXVUWDgj1hCtiNu1)" ></path>
        <path d="M185.914 807.677C271.237 821.443 250.908 789.81 228.972 755.522C213.102 739.638 210.978 729.942 210.978 717.802C210.978 705.662 222.594 685.818 189.219 677.562C174.561 674.229 166.876 659.571 166.164 633.588C163.857 620.527 149.866 617.262 124.191 623.792C112.769 625.988 101.229 620.482 89.5711 607.277C57.4031 585.385 42.4757 590.891 44.7886 623.792C50.9772 647.361 55.0366 663.116 53.0069 677.562C50.9772 692.008 57.3218 719.307 89.5711 730.51C111.071 737.979 117.109 748.576 107.687 762.301C102.956 783.375 129.032 798.501 185.914 807.677Z"   fill="url(#linear_fill_HeHyZcjFLAvq_f1BbCbIP)" ></path>
        <path d="M172.736 749.078L212.002 799L205.775 799L167.818 748.447C149.435 756.293 139.12 753.011 134.014 750.703C143.978 753.144 154.55 751.464 165.728 745.662L136.863 707.218C137.017 707.514 137.183 707.82 137.36 708.134C118.152 714.863 98.2085 715.661 88.9979 710.869C98.8646 714.587 114.527 712.736 135.984 705.314L135.547 705.465L103.383 662.624C103.448 662.795 103.508 662.968 103.563 663.142C89.4327 664.012 78.1533 659.516 69.7245 649.653C71.0586 648.354 80.0724 661.46 101.865 660.605L74.9389 624.743L110.377 669.797L110.447 669.63C114.318 660.294 115.101 650.866 112.795 641.345L112.718 641.039L112.732 641.081C115.067 648.349 119.541 657.017 112.12 672.011L142.147 710.19L142.342 709.92C148.315 701.435 151.302 690.283 151.302 676.464C152.68 680.756 152.711 700.47 144.144 712.727L170.75 746.554C172.431 743.944 176.633 736.596 176.633 728.401C177.521 734.045 177.581 741.619 172.736 749.078Z"   fill="url(#linear_fill_gwmi7Bla-u7_opatwRLOY)" ></path>
        <path d="M268.122 742.786C263.037 754.359 263.037 762.092 268.122 765.985C275.749 771.825 290.404 789.337 272.388 823.377C254.373 857.417 211.928 830.98 205.565 814.976C199.201 798.971 211.928 776.925 205.565 765.985C199.201 755.046 162.099 751.279 172.012 718.469C180.261 705.045 191.746 701.165 180.216 678.308C168.685 655.451 165.758 664.634 180.216 642.118C186.528 635.648 192.857 624.526 199.201 608.752C211.62 591.492 222.737 593.244 232.553 614.007C237.312 631.948 229.797 643.354 254.373 651.509C270.757 656.946 273.237 668.329 261.811 685.658C257.039 696.562 260.565 703.531 272.388 706.567C284.212 709.602 282.79 721.675 268.122 742.786Z"   fill="url(#linear_fill_F1OoFEku4pRhNXd-CDRTk)" ></path>
        <path d="M227.922 697.757L237.384 745.208C237.394 745.143 237.404 745.079 237.416 745.018C250.426 733.578 258.643 724.728 262.067 718.468C261.428 722.913 245.225 743.17 237.973 748.169L246.678 791.813C246.705 791.492 246.728 791.281 246.728 791.281C246.728 791.281 258.172 782.533 262.067 776.254C261.817 778.871 252.053 790.209 247.191 794.387L254.373 830.405L248.9 830.405L242.39 792.312C232.805 789.846 224.003 782.119 220.381 777.752C228.443 784.461 235.535 788.162 241.657 788.856C241.779 789.936 241.992 790.901 242.294 791.75L223.963 684.474C223.947 684.77 223.917 685.064 223.872 685.355C213.254 677.36 205.463 668.445 200.5 658.609C202.27 658.026 207.51 672.46 223.597 682.342L216.106 638.507L227.457 695.422C234.85 684.555 240.172 675.077 243.421 666.987C248.233 655.006 236.918 688.47 227.922 697.757Z"   fill="url(#linear_fill_T7_jp1bf3ZgutD5WUacyC)" ></path>
        <path d="M190.987 722.079C198.225 729.746 212.235 735.144 233.017 738.271C232.947 739.173 232.947 740.219 233.017 741.409C212.804 739.036 197.165 730.424 190.987 722.079Z"   fill="url(#linear_fill_Lxp91kX7GJrWsGEmhaMtL)" ></path>
        <path d="M594.219 541.083C594.463 543.233 594.862 545.341 595.416 547.408C597.243 554.229 600.068 559.398 603.891 562.915C613.143 571.402 623.247 574.178 634.201 571.242L696.519 554.544L712.386 613.762L744.786 605.081L728.918 545.863L748.606 540.588L740.423 510.049L720.735 515.324L681.4 368.52L649 377.202L688.336 524.005L643.071 536.134C639.453 537.104 636.273 537.014 633.528 535.867C629.867 534.189 627.593 531.697 626.707 528.39C626.402 527.253 626.01 524.755 625.529 520.896L610.711 387.461L578.621 396.06L594.219 541.083Z"   fill="url(#linear_fill__OLlGYCtyST5Ycu5fwukc)" ></path>
        <path d="M329.542 604.254L338.785 551.836L356.211 554.909L360.978 527.877L343.551 524.804L366.464 394.858L337.786 389.801L314.872 519.747L274.805 512.682C271.603 512.118 269.133 510.88 267.395 508.97C265.129 506.307 264.254 503.512 264.77 500.584C264.948 499.578 265.555 497.469 266.593 494.256L303.892 383.825L275.488 378.816L234.55 498.651C233.953 500.433 233.493 502.238 233.171 504.068C232.106 510.105 232.432 515.209 234.15 519.379C238.316 529.452 245.247 535.343 254.944 537.053L310.106 546.779L300.863 599.197L329.542 604.254Z"   fill="url(#linear_fill_5-PRwlAJsFpmfaHc_lpS5)" ></path>
        <path d="M545.694 403.494C549.305 411.655 549.933 420.13 547.578 428.918L516.142 546.24C513.252 557.025 508.318 564.437 501.352 568.479C498.424 570.178 495.003 571.36 491.075 572.02C486.425 572.829 482.467 572.799 479.206 571.925L430.05 558.754C420.425 556.175 413.253 550.96 408.537 543.103C404.251 535.874 403.434 527.3 406.088 517.393L437.395 400.554C440.135 390.328 445.331 382.849 452.988 378.136C460.523 373.562 468.355 372.367 476.469 374.541L523.712 387.2C534.849 390.184 542.178 395.616 545.694 403.494ZM463.081 407.174C463.805 404.475 465.413 402.439 467.907 401.065C470.178 399.886 472.983 399.743 476.314 400.636L515.106 411.03C522.007 412.879 524.429 417.617 522.387 425.239L492.553 536.581C491.319 541.186 489.667 544.193 487.591 545.594C485.235 547.09 481.562 547.167 476.565 545.828L441.337 536.389C433.325 534.242 430.449 528.96 432.704 520.545L463.081 407.174Z" fill-rule="evenodd"  fill="url(#linear_fill__kSiyGYm45osA4eWM0BoL)" ></path>
        <path    stroke="rgba(71, 176, 241, 1.00)" stroke-width="1"    d="M877.426 186.49L877.426 186.49ZM877.426 186.49L729.087 282.509"></path>
        <path    stroke="rgba(71, 176, 241, 1.00)" stroke-width="1"    d="M877.5 226L877.5 226ZM877.5 226L973 282.509"></path>
        <path d="M878 282L878 800L830 800L830 282L878 282Z"   fill="url(#linear_fill_-9yTymDoPFzG875Hwc2tY)" ></path>
        <path d="M904 753L904 800L804 800L804 753L904 753Z"   fill="url(#linear_fill_E6U4w-NCV3zAIeFFM9TMq)" ></path>
        <path d="M916 770L916 800L792 800L792 770L916 770Z"   fill="url(#linear_fill_iN5HuyTH5jZ4loLV-T4ff)" ></path>
        <path d="M973 282L973 308L685 308L685 282L973 282Z"   fill="url(#linear_fill_qb8e0qlWRNafpylrZ0dMw)" ></path>
        <path d="M878 184L830 282L878 282L878 184Z"   fill="url(#linear_fill_uiXuIyvc8qrw_ALPOPzzU)" ></path>
        <path    stroke="rgba(71, 176, 241, 1.00)" stroke-width="1"    d="M927.5 306L927.5 552M927.5 552L927.5 552Z"></path>
        <path d="M918 561C918 565.971 922.029 570 927 570C931.971 570 936 565.971 936 561C936 556.029 931.971 552 927 552C922.029 552 918 556.029 918 561Z"   fill="url(#linear_fill_rKDXA2L30FQVJeZZu-kQJ)" ></path>
        <path d="M672 313C662.059 313 654 304.941 654 295C654 285.059 662.059 277 672 277C681.941 277 690 285.059 690 295C690 304.941 681.941 313 672 313ZM672 303C667.582 303 664 299.418 664 295C664 290.582 667.582 287 672 287C676.418 287 680 290.582 680 295C680 299.418 676.418 303 672 303Z" fill-rule="evenodd"  fill="url(#linear_fill_yCfe-WDLxE_0zeu-Z53Lp)" ></path>
        <path    stroke="rgba(71, 176, 241, 1.00)" stroke-width="1"    d="M671.424 306L671.424 306ZM671.424 306L671.576 385"></path>
        <path d="M663 385C663 389.971 667.029 394 672 394C676.971 394 681 389.971 681 385C681 380.029 676.971 376 672 376C667.029 376 663 380.029 663 385Z"   fill="url(#linear_fill_8aQ3ZfqcOoofMtPnGWqGa)" ></path>
        <path d="M909.396 796.516C912.302 774.313 904.837 762.352 887 760.632C911.142 758.325 927.124 773.017 927.382 796.516C922.377 796.691 916.382 796.691 909.396 796.516Z"   fill="url(#linear_fill__-CQH5wljlrakwUmTreHP)" ></path>
        <path d="M921.121 796.647C925.834 774.241 920.037 757.692 903.731 747C924.552 753.567 939.511 763.435 944.373 796.647C938.019 797.118 930.268 797.118 921.121 796.647Z"   fill="url(#linear_fill_1hSCYUtAVRE-10ClRZQGf)" ></path>
        <path d="M948.068 797C945.983 775.704 953.628 763.503 971 760.395C954.886 759.987 936.911 758.906 924.052 797C934.95 796.65 942.955 796.65 948.068 797Z"   fill="url(#linear_fill_oQJD_y6U3qDltCJde5k6m)" ></path>
        <path d="M898.412 810.999C915.257 810.999 928 811.409 928 795.609C928 779.809 914.345 767 897.5 767C880.655 767 867 779.809 867 795.609C867 811.409 881.568 810.999 898.412 810.999Z"   fill="url(#linear_fill_h4mlmfYxKXhzAi0cg8zUx)" ></path>
        <path d="M931.568 810.999C942.062 810.999 950 811.251 950 801.555C950 791.86 941.493 784 931 784C920.507 784 912 791.86 912 801.555C912 811.251 921.075 810.999 931.568 810.999Z"   fill="url(#linear_fill_4GQfdQtLCo31gd3ZuDfeV)" ></path>
        <g opacity="0.4">
            <path d="M543.079 868.497C565.413 875.487 556.522 879.676 549.095 883.786C535.459 891.334 541.586 897.93 548.525 903.998C558.794 912.978 635.453 934.633 718.569 916.217C796.076 899.057 784.4 868.223 764.478 854.228C748.433 842.987 678.501 817.495 598.539 823.001C550.419 826.301 529.757 834.565 525.746 840.928C519.115 851.467 518.211 860.709 543.079 868.497Z"   fill="url(#linear_fill_H5biAhvGyDNoDmwuxJYec)" ></path>
        </g>
        <path d="M686.338 716.613C686.727 709.493 694.867 699.594 699.128 696.838C703.389 694.082 722.212 677.248 710.606 660.566C699 643.884 677.456 648.627 669.307 665.912C661.157 683.198 656.75 692.852 660.467 696.27C667.888 702.716 656.76 725.579 655.376 729.469C654.453 732.062 665.444 728.286 688.35 718.142L686.338 716.613Z"   fill="#EBB0B0" ></path>
        <path d="M672.003 681.893C672.553 683.06 673.617 679.876 675.923 680.26C678.229 680.644 679.12 687.638 673.553 689.3C667.985 690.961 669.154 690.004 669.154 690.004C669.154 690.004 668.085 697.109 670.588 698.627C673.092 700.145 683.927 711.277 688.048 708.721C692.169 706.165 699.655 706.37 708.88 697.341C718.105 688.312 718.216 669.209 714.667 661.125C711.118 653.042 707.553 647.832 704.075 644.648C690.138 631.893 679.738 644.651 676.412 653.99C673.085 663.328 675.438 661.693 676.588 669.77C676.588 669.77 678.629 669.513 670.656 678.651L672.003 681.893Z" fill-rule="evenodd"  fill="#131322" ></path>
        <path d="M752.257 846.617C751.763 854.885 757.802 857.598 770.373 854.754C783.37 850.947 784.381 841.625 773.648 839.344C766.494 837.823 764.298 837.595 767.062 838.661C772.596 833.736 773.072 831.5 768.487 831.953C762.672 832.828 757.262 837.716 752.257 846.617Z" fill-rule="evenodd"  fill="#EFBA9E" ></path>
        <path d="M670.383 919.777C675.481 911.8 682.886 913.349 692.599 924.422C702.058 936.674 696.73 945.972 685.275 940.871C677.638 937.471 675.455 936.207 678.726 937.078C680.535 945.35 679.473 947.736 675.539 944.237C670.75 939.523 669.031 931.369 670.383 919.777Z" fill-rule="evenodd"  fill="#EFBA9E" ></path>
        <path d="M594.75 783.946C598.817 798.779 602.936 818.121 608.935 832.299C609.375 833.594 610.149 834.753 611.18 835.659C614.019 837.698 617.86 835.285 620.448 832.964L653.782 803.302L655.791 805.303L626.24 743.273C622.964 736.863 612.365 731.302 605.256 729.895C597.589 728.405 588.113 735.871 582.697 741.434C566.659 757.867 564.456 760.104 542.811 793.785C545.321 801.372 545.796 800.141 550.819 806.432C551.471 807.425 552.437 808.175 553.565 808.564C554.859 808.692 556.156 808.365 557.229 807.641L594.75 783.946Z"   fill="url(#linear_fill_N24KfEuPeja7gKN8vu4QG)" ></path>
        <path d="M511.114 873.943C512.191 879.241 513.979 881.602 512.852 884.555C511.725 887.507 505.133 891.504 501.258 890.577C496.347 889.403 488.002 886.833 485.64 886.159C483.277 885.486 467.15 880.445 465.584 875.281C464.017 870.117 471.888 866.659 482.433 868.058C492.978 869.458 507.968 872.738 507.968 872.738L511.114 873.943Z"   fill="#333333" ></path>
        <path d="M654 853.341C648.791 847.975 638.757 842.734 623.898 837.619C602.176 816.331 590.878 794.042 569.26 775.423C562.048 769.874 557.147 763.692 545.646 761.713C540.68 760.243 535.208 762.554 530.534 764.716C523.895 767.776 512.606 785.842 510.665 792.57C502.697 820.27 498.278 827.666 495.216 875.418C494.964 879.348 497.937 883.494 501.806 885.012C508.408 887.623 514.461 880.421 517.305 874.216C522.54 862.812 541.385 841.042 544.18 828.898C559.124 855.745 559.124 854.78 575.736 881.57C580.142 888.677 606.804 921.373 641.375 902.044C657.073 894.322 659.386 890.732 665.269 879.122C666.977 875.722 655.794 854.967 654 853.341Z"   fill="url(#linear_fill_MDFplvKh_4J5XqgvCaM8b)" ></path>
        <path d="M753.27 818.753C757.675 826.899 762.504 835.545 761.764 844.789C761.024 854.032 753.511 854.983 745.017 851.422C742.479 850.146 740.225 848.366 738.391 846.19C703.202 809.205 679.106 776.463 672.189 725.747L672.044 727.344C676.897 719.357 687.818 716.455 696.797 719.052C705.777 721.65 710.124 730.63 714.941 738.678C719.759 746.727 725.997 757.108 729.103 765.986C735.895 785.282 743.56 800.761 753.27 818.753Z" fill-rule="evenodd"  fill="url(#linear_fill_bPn2KFzHZqn50QrMRfvrb)" ></path>
        <path d="M647.375 724.342C663.306 708.945 680.249 706.81 698.203 717.935C725.133 734.624 720.395 852.574 677.964 880.527C635.533 908.48 598.789 872.71 597.592 849.937C595.929 803.459 612.523 761.594 647.375 724.342Z"   fill="url(#linear_fill_Y-ZtJSuX0W0t0lTAUaUmJ)" ></path>
        <path d="M638.999 759.806C648.625 733.312 661.978 731.402 679.057 754.078C685.297 769.855 687.356 822.955 685.232 913.378C678.653 930.172 670.479 931.175 660.71 916.389C641.304 860.316 634.067 808.122 638.999 759.806Z"   fill="url(#linear_fill_kDxN627bJcBV6cdokH7Kd)" ></path>
    </g>
    <defs>
        <clipPath id="clip-path-KE17naRhiY5UDr0r7EdVe">
            <path d="M0 1024L1024 1024L1024 0L0 0L0 1024Z" fill="white"/>
        </clipPath>
        <linearGradient id="linear_fill_axprL56s2NDx001oldiz-" x1="53.157958984375" y1="322" x2="132" y2="320.71337890625" gradientUnits="userSpaceOnUse">
            <stop offset="0" stop-color="#98D6FA"  />
            <stop offset="1" stop-color="#47B0F1"  />
        </linearGradient>
        <linearGradient id="linear_fill_0Dhl8db8OhU0ATLeuZrUH" x1="753.157958984375" y1="152" x2="832" y2="150.71337890625" gradientUnits="userSpaceOnUse">
            <stop offset="0" stop-color="#98D6FA"  />
            <stop offset="1" stop-color="#47B0F1"  />
        </linearGradient>
        <linearGradient id="linear_fill_X5pcLaFgcFF0fi9jMdFq3" x1="62" y1="704.3603515625" x2="992" y2="704.3603515625" gradientUnits="userSpaceOnUse">
            <stop offset="0" stop-color="#FFF5DE"  />
            <stop offset="1" stop-color="#FBD2AC"  />
        </linearGradient>
        <linearGradient id="linear_fill_yHXDwUsFQVtOZgjMypL2n" x1="639.00537109375" y1="213.86181640625" x2="686.608642578125" y2="213.25537109375" gradientUnits="userSpaceOnUse">
            <stop offset="0" stop-color="#98D6FA"  />
            <stop offset="1" stop-color="#47B0F1"  />
        </linearGradient>
        <linearGradient id="linear_fill_O7B_CMEOJ1qeunzWL7fiV" x1="737.038818359375" y1="205.2470703125" x2="770.03466796875" y2="204.826904296875" gradientUnits="userSpaceOnUse">
            <stop offset="0" stop-color="#98D6FA"  />
            <stop offset="1" stop-color="#47B0F1"  />
        </linearGradient>
        <linearGradient id="linear_fill__qQ-tmhr0Qx5HClYPcvCx" x1="702.24658203125" y1="170.76904296875" x2="735.242431640625" y2="170.348876953125" gradientUnits="userSpaceOnUse">
            <stop offset="0" stop-color="#98D6FA"  />
            <stop offset="1" stop-color="#47B0F1"  />
        </linearGradient>
        <linearGradient id="linear_fill_2fYZnGutpqs1zLSR6pp7v" x1="817.849609375" y1="213.926025390625" x2="840.72314453125" y2="213.635009765625" gradientUnits="userSpaceOnUse">
            <stop offset="0" stop-color="#98D6FA"  />
            <stop offset="1" stop-color="#47B0F1"  />
        </linearGradient>
        <linearGradient id="linear_fill_aKz19_t4gw-1r07mh2UaF" x1="-33.989013671875" y1="720.51953125" x2="138.96337890625" y2="740.629638671875" gradientUnits="userSpaceOnUse">
            <stop offset="0" stop-color="#98D6FA"  />
            <stop offset="1" stop-color="#47B0F1"  />
        </linearGradient>
        <linearGradient id="linear_fill_J1EAkbbx39fwVv6h1b9gq" x1="51.6298828125" y1="675.006591796875" x2="67.870849609375" y2="676.2744140625" gradientUnits="userSpaceOnUse">
            <stop offset="0.0315726754" stop-color="#AFDEF9"  />
            <stop offset="1" stop-color="#7CC9F9"  />
        </linearGradient>
        <linearGradient id="linear_fill_0AEC1FXVUWDgj1hCtiNu1" x1="105.9111328125" y1="754.66015625" x2="111.903564453125" y2="750.43115234375" gradientUnits="userSpaceOnUse">
            <stop offset="0.0315726754" stop-color="#AFDEF9"  />
            <stop offset="1" stop-color="#7CC9F9"  />
        </linearGradient>
        <linearGradient id="linear_fill_HeHyZcjFLAvq_f1BbCbIP" x1="56.608154296875" y1="726.106689453125" x2="166.634033203125" y2="674.497802734375" gradientUnits="userSpaceOnUse">
            <stop offset="0" stop-color="#98D6FA"  />
            <stop offset="1" stop-color="#47B0F1"  />
        </linearGradient>
        <linearGradient id="linear_fill_gwmi7Bla-u7_opatwRLOY" x1="74.994384765625" y1="609.16064453125" x2="90.04736328125" y2="617.3740234375" gradientUnits="userSpaceOnUse">
            <stop offset="0.0315726754" stop-color="#AFDEF9"  />
            <stop offset="1" stop-color="#7CC9F9"  />
        </linearGradient>
        <linearGradient id="linear_fill_F1OoFEku4pRhNXd-CDRTk" x1="201.770751953125" y1="808.375732421875" x2="225.66943359375" y2="671.0498046875" gradientUnits="userSpaceOnUse">
            <stop offset="0" stop-color="#98D6FA"  />
            <stop offset="1" stop-color="#47B0F1"  />
        </linearGradient>
        <linearGradient id="linear_fill_T7_jp1bf3ZgutD5WUacyC" x1="227.059814453125" y1="626.1259765625" x2="237.6474609375" y2="638.506591796875" gradientUnits="userSpaceOnUse">
            <stop offset="0.0315726754" stop-color="#AFDEF9"  />
            <stop offset="1" stop-color="#7CC9F9"  />
        </linearGradient>
        <linearGradient id="linear_fill_Lxp91kX7GJrWsGEmhaMtL" x1="209.11865234375" y1="720.83203125" x2="216.346435546875" y2="722.0791015625" gradientUnits="userSpaceOnUse">
            <stop offset="0.0315726754" stop-color="#AFDEF9"  />
            <stop offset="1" stop-color="#7CC9F9"  />
        </linearGradient>
        <linearGradient id="linear_fill__OLlGYCtyST5Ycu5fwukc" x1="627.649658203125" y1="603.52783203125" x2="648.091064453125" y2="454.728515625" gradientUnits="userSpaceOnUse">
            <stop offset="0" stop-color="#98D6FA"  />
            <stop offset="1" stop-color="#47B0F1"  />
        </linearGradient>
        <linearGradient id="linear_fill_5-PRwlAJsFpmfaHc_lpS5" x1="237.94287109375" y1="560.052734375" x2="308.624267578125" y2="450.4697265625" gradientUnits="userSpaceOnUse">
            <stop offset="0" stop-color="#98D6FA"  />
            <stop offset="1" stop-color="#47B0F1"  />
        </linearGradient>
        <linearGradient id="linear_fill__kSiyGYm45osA4eWM0BoL" x1="417.294921875" y1="529.789794921875" x2="486.47607421875" y2="437.164306640625" gradientUnits="userSpaceOnUse">
            <stop offset="0" stop-color="#98D6FA"  />
            <stop offset="1" stop-color="#47B0F1"  />
        </linearGradient>
        <linearGradient id="linear_fill_-9yTymDoPFzG875Hwc2tY" x1="854" y1="182.595458984375" x2="854.2060546875" y2="732.703857421875" gradientUnits="userSpaceOnUse">
            <stop offset="0" stop-color="#98D6FA"  />
            <stop offset="1" stop-color="#47B0F1"  />
        </linearGradient>
        <linearGradient id="linear_fill_E6U4w-NCV3zAIeFFM9TMq" x1="804" y1="776.5" x2="939.606689453125" y2="779.57568359375" gradientUnits="userSpaceOnUse">
            <stop offset="0" stop-color="#98D6FA"  />
            <stop offset="1" stop-color="#47B0F1"  />
        </linearGradient>
        <linearGradient id="linear_fill_iN5HuyTH5jZ4loLV-T4ff" x1="792" y1="785" x2="884.947265625" y2="785.8779296875" gradientUnits="userSpaceOnUse">
            <stop offset="0" stop-color="#98D6FA"  />
            <stop offset="1" stop-color="#47B0F1"  />
        </linearGradient>
        <linearGradient id="linear_fill_qb8e0qlWRNafpylrZ0dMw" x1="631.901611328125" y1="294.958740234375" x2="1001.62841796875" y2="295.234619140625" gradientUnits="userSpaceOnUse">
            <stop offset="0" stop-color="#98D6FA"  />
            <stop offset="1" stop-color="#47B0F1"  />
        </linearGradient>
        <linearGradient id="linear_fill_uiXuIyvc8qrw_ALPOPzzU" x1="848.242431640625" y1="233" x2="863.857666015625" y2="262.03076171875" gradientUnits="userSpaceOnUse">
            <stop offset="0" stop-color="#98D6FA"  />
            <stop offset="1" stop-color="#47B0F1"  />
        </linearGradient>
        <linearGradient id="linear_fill_rKDXA2L30FQVJeZZu-kQJ" x1="918" y1="561" x2="942.4091796875" y2="566.332275390625" gradientUnits="userSpaceOnUse">
            <stop offset="0" stop-color="#98D6FA"  />
            <stop offset="1" stop-color="#47B0F1"  />
        </linearGradient>
        <linearGradient id="linear_fill_yCfe-WDLxE_0zeu-Z53Lp" x1="637.823974609375" y1="295" x2="711.7998046875" y2="295" gradientUnits="userSpaceOnUse">
            <stop offset="0" stop-color="#98D6FA"  />
            <stop offset="1" stop-color="#47B0F1"  />
        </linearGradient>
        <linearGradient id="linear_fill_8aQ3ZfqcOoofMtPnGWqGa" x1="663" y1="385" x2="687.4091796875" y2="390.332275390625" gradientUnits="userSpaceOnUse">
            <stop offset="0" stop-color="#98D6FA"  />
            <stop offset="1" stop-color="#47B0F1"  />
        </linearGradient>
        <linearGradient id="linear_fill__-CQH5wljlrakwUmTreHP" x1="919.377197265625" y1="788.716796875" x2="903.218017578125" y2="760.8310546875" gradientUnits="userSpaceOnUse">
            <stop offset="0" stop-color="#98D6FA"  />
            <stop offset="1" stop-color="#47B0F1"  />
        </linearGradient>
        <linearGradient id="linear_fill_1hSCYUtAVRE-10ClRZQGf" x1="910.625244140625" y1="785.8017578125" x2="933.44482421875" y2="760.6552734375" gradientUnits="userSpaceOnUse">
            <stop offset="0" stop-color="#98D6FA"  />
            <stop offset="1" stop-color="#47B0F1"  />
        </linearGradient>
        <linearGradient id="linear_fill_oQJD_y6U3qDltCJde5k6m" x1="924.052001953125" y1="784.840576171875" x2="963.947265625" y2="773.550048828125" gradientUnits="userSpaceOnUse">
            <stop offset="0" stop-color="#98D6FA"  />
            <stop offset="1" stop-color="#47B0F1"  />
        </linearGradient>
        <linearGradient id="linear_fill_h4mlmfYxKXhzAi0cg8zUx" x1="867" y1="795.319091796875" x2="918.83642578125" y2="783.8056640625" gradientUnits="userSpaceOnUse">
            <stop offset="0" stop-color="#98D6FA"  />
            <stop offset="1" stop-color="#47B0F1"  />
        </linearGradient>
        <linearGradient id="linear_fill_4GQfdQtLCo31gd3ZuDfeV" x1="912" y1="801.2626953125" x2="944.29150390625" y2="794.4072265625" gradientUnits="userSpaceOnUse">
            <stop offset="0" stop-color="#98D6FA"  />
            <stop offset="1" stop-color="#47B0F1"  />
        </linearGradient>
        <linearGradient id="linear_fill_H5biAhvGyDNoDmwuxJYec" x1="766.457763671875" y1="785.120849609375" x2="517.21044921875" y2="820.150390625" gradientUnits="userSpaceOnUse">
            <stop offset="0" stop-color="#F5DDA7"  />
            <stop offset="1" stop-color="#FA9A41"  />
        </linearGradient>
        <linearGradient id="linear_fill_N24KfEuPeja7gKN8vu4QG" x1="653.38916015625" y1="736.30615234375" x2="557.60302734375" y2="717.687255859375" gradientUnits="userSpaceOnUse">
            <stop offset="0" stop-color="#923629"  />
            <stop offset="0.3" stop-color="#57352C"  />
            <stop offset="0.5" stop-color="#42352C"  />
            <stop offset="0.7" stop-color="#2C2422"  />
            <stop offset="1" stop-color="#1D181C"  />
        </linearGradient>
        <linearGradient id="linear_fill_MDFplvKh_4J5XqgvCaM8b" x1="642.07958984375" y1="757.131591796875" x2="495.201171875" y2="757.131591796875" gradientUnits="userSpaceOnUse">
            <stop offset="0" stop-color="#923629"  />
            <stop offset="0.3" stop-color="#57352C"  />
            <stop offset="0.5" stop-color="#42352C"  />
            <stop offset="0.7" stop-color="#2C2422"  />
            <stop offset="1" stop-color="#1D181C"  />
        </linearGradient>
        <linearGradient id="linear_fill_bPn2KFzHZqn50QrMRfvrb" x1="700.537841796875" y1="840.774658203125" x2="741.509521484375" y2="785.73388671875" gradientUnits="userSpaceOnUse">
            <stop offset="0" stop-color="#FFB859"  />
            <stop offset="1" stop-color="#F97B61"  />
        </linearGradient>
        <linearGradient id="linear_fill_Y-ZtJSuX0W0t0lTAUaUmJ" x1="637.249755859375" y1="752.270751953125" x2="693.4951171875" y2="817.44482421875" gradientUnits="userSpaceOnUse">
            <stop offset="0" stop-color="#FFB859"  />
            <stop offset="1" stop-color="#F97B61"  />
        </linearGradient>
        <linearGradient id="linear_fill_kDxN627bJcBV6cdokH7Kd" x1="664.027587890625" y1="846.373291015625" x2="667.93701171875" y2="821.796875" gradientUnits="userSpaceOnUse">
            <stop offset="0" stop-color="#FFB859"  />
            <stop offset="1" stop-color="#F97B61"  />
        </linearGradient>
    </defs>
</svg>