<svg xmlns="http://www.w3.org/2000/svg" xmlns:xlink="http://www.w3.org/1999/xlink" width="443.4049987792969" height="503.95574951171875" viewBox="0 0 443.4049987792969 503.95574951171875" fill="none">
<path d="M443.405 138.989L443.405 364.967C443.405 374.256 438.449 382.839 430.405 387.483L234.702 500.472C226.658 505.117 216.747 505.117 208.702 500.472L13 387.483C4.95557 382.839 0 374.256 0 364.967L0 138.989C0 129.7 4.95557 121.117 13 116.472L208.702 3.48334C216.747 -1.16111 226.658 -1.16111 234.702 3.48334L430.405 116.472C438.449 121.117 443.405 129.7 443.405 138.989ZM400.104 148.978L400.104 354.978L221.702 457.978L43.3013 354.978L43.3013 148.978L221.702 45.9778L400.104 148.978ZM359.703 252.978C359.703 329.193 297.917 390.978 221.702 390.978C145.487 390.978 83.7025 329.193 83.7025 252.978C83.7025 176.762 145.487 114.978 221.702 114.978C277.98 114.978 326.391 148.667 347.867 196.978L290.401 196.978C274.275 176.86 249.492 163.978 221.702 163.978C173.101 163.978 133.702 203.377 133.702 251.978C133.702 300.579 173.101 339.978 221.702 339.978C266.234 339.978 303.039 306.902 308.891 263.978L249.622 263.978C245.234 275.105 234.387 282.978 221.702 282.978C205.134 282.978 191.702 269.546 191.702 252.978C191.702 236.41 205.134 222.978 221.702 222.978C234.387 222.978 245.234 230.851 249.622 241.978L359.271 241.978C359.557 245.607 359.703 249.275 359.703 252.978Z" fill-rule="evenodd" fill="currentColor" >
</path>
</svg>
