<svg xmlns="http://www.w3.org/2000/svg" xmlns:xlink="http://www.w3.org/1999/xlink" width="545" height="576" viewBox="0 0 545 576" fill="none">
<path d="M494.405 174.989L494.405 400.967C494.405 410.256 489.449 418.839 481.405 423.483L285.702 536.472C277.658 541.117 267.747 541.117 259.702 536.472L64 423.483C55.9556 418.839 51 410.256 51 400.967L51 174.989C51 165.7 55.9556 157.117 64 152.472L259.702 39.4833C267.747 34.8389 277.658 34.8389 285.702 39.4833L481.405 152.472C489.449 157.117 494.405 165.7 494.405 174.989ZM451.104 184.978L451.104 390.978L272.702 493.978L94.3013 390.978L94.3013 184.978L272.702 81.9778L451.104 184.978ZM410.703 288.978C410.703 365.193 348.917 426.978 272.702 426.978C196.487 426.978 134.702 365.193 134.702 288.978C134.702 212.762 196.487 150.978 272.702 150.978C328.98 150.978 377.391 184.667 398.867 232.978L341.401 232.978C325.275 212.86 300.492 199.978 272.702 199.978C224.101 199.978 184.702 239.377 184.702 287.978C184.702 336.579 224.101 375.978 272.702 375.978C317.234 375.978 354.039 342.902 359.891 299.978L300.622 299.978C296.234 311.105 285.387 318.978 272.702 318.978C256.134 318.978 242.702 305.546 242.702 288.978C242.702 272.41 256.134 258.978 272.702 258.978C285.387 258.978 296.234 266.851 300.622 277.978L410.271 277.978C410.557 281.607 410.703 285.275 410.703 288.978Z" fill-rule="evenodd"  fill="url(#linear_fill_2_31)" >
</path>
<defs>
<linearGradient id="linear_fill_2_31" x1="396.85589599609375" y1="479.48089599609375" x2="152.983154296875" y2="101.51422119140625" gradientUnits="userSpaceOnUse">
<stop offset="0" stop-color="#84FAB0"  />
<stop offset="1" stop-color="#4FACFE"  />
</linearGradient>
</defs>
</svg>
